# AST/ASF file generated using VICON BodyLanguage
# -----------------------------------------------
:version 1.10
:name VICON
:units
  mass 1.0
  length 0.45
  angle deg
:documentation
   .ast/.asf automatically generated from VICON data using
   VICON BodyBuilder and BodyLanguage model FoxedUp or BRILLIANT.MOD
:root
   order TX TY TZ RX RY RZ
   axis XYZ
   position 0 0 0  
   orientation 0 0 0 
:bonedata
  begin
     id 1 
     name lhipjoint
     direction 0.707368 -0.647095 0.284426 
     length 2.60678 
     axis 0 0 0  XYZ
  end
  begin
     id 2 
     name lfemur
     direction 0.34202 -0.939693 0  
     length 6.63812  
     axis 0 0 20  XYZ
    dof rx ry rz
    limits (-160.0 20.0)
           (-70.0 70.0)
           (-60.0 70.0)
  end
  begin
     id 3 
     name ltibia
     direction 0.34202 -0.939693 0   
     length 7.51178   
     axis 0 0 20   XYZ
    dof rx
    limits (-10.0 170.0)
  end
  begin
     id 4 
     name lfoot
     direction 0.121251 -0.333133 0.935051   
     length 1.83716   
     axis -90 7.62852e-016 20   XYZ
    dof rx rz
    limits (-45.0 90.0)
           (-70.0 20.0)
  end
  begin
     id 5 
     name ltoes
     direction 1.53611e-011 -4.21962e-011 1   
     length 0.916133   
     axis -90 7.62852e-016 20   XYZ
    dof rx
    limits (-90.0 20.0)
  end
  begin
     id 6 
     name rhipjoint
     direction -0.692419 -0.660507 0.290321   
     length 2.55385  
     axis 0 0 0  XYZ 
  end
  begin
     id 7 
     name rfemur
     direction -0.34202 -0.939693 0   
     length 7.29079   
     axis 0 0 -20   XYZ
    dof rx ry rz
    limits (-160.0 20.0)
           (-70.0 70.0)
           (-70.0 60.0)
  end
  begin
     id 8 
     name rtibia
     direction -0.34202 -0.939693 0   
     length 7.47143   
     axis 0 0 -20   XYZ
    dof rx
    limits (-10.0 170.0)
 end
 begin
     id 9 
     name rfoot
     direction -0.119907 -0.329441 0.936532   
     length 1.79439  
     axis -90 -7.62852e-016 -20   XYZ
    dof rx rz
    limits (-45.0 90.0)
           (-20.0 70.0)
  end
  begin
     id 10 
     name rtoes
     direction -1.53571e-011 -4.21961e-011 1   
     length 0.896039   
     axis -90 -7.62852e-016 -20   XYZ
    dof rx
    limits (-90.0 20.0)
  end
  begin
     id 11 
     name lowerback
     direction 0.0367721 0.992912 -0.113016   
     length 1.73542   
     axis 0 0 0   XYZ
    dof rx ry rz
    limits (-20.0 45.0)
           (-30.0 30.0)
           (-30.0 30.0)
  end
  begin
     id 12 
     name upperback
     direction -0.000314626 0.990678 0.136227   
     length 1.7514   
     axis 0 0 0   XYZ
    dof rx ry rz
    limits (-20.0 45.0)
           (-30.0 30.0)
           (-30.0 30.0)
  end
  begin
     id 13 
     name thorax
     direction -0.0226159 0.981151 0.191917   
     length 1.71471   
     axis 0 0 0   XYZ
    dof rx ry rz
    limits (-20.0 45.0)
           (-30.0 30.0)
           (-30.0 30.0)
  end
  begin
     id 14 
     name lowerneck
     direction 0.0219333 0.998071 0.0580739   
     length 1.65882   
     axis 0 0 0   XYZ
    dof rx ry rz
    limits (-20.0 45.0)
           (-30.0 30.0)
           (-30.0 30.0)
  end
  begin
     id 15 
     name upperneck
     direction 0.0384529 0.980058 -0.194957   
     length 1.6612   
     axis 0 0 0   XYZ
    dof rx ry rz
    limits (-20.0 45.0)
           (-30.0 30.0)
           (-30.0 30.0)
  end
  begin
     id 16
     name head
     direction 0.00592123 0.997421 -0.0715234  
     length 1.68077  
     axis 0 0 0   XYZ
    dof rx ry rz
    limits (-20.0 45.0)
           (-30.0 30.0)
           (-30.0 30.0)
  end
  begin
     id 17 
     name lclavicle
     direction 0.904803 0.417826 0.0821728  
     length 3.42227  
     axis 0 0 0   XYZ
    dof ry rz
    limits (-20.0 10.0)
           (0.0 20.0)
  end
  begin
     id 18 
     name lhumerus
     direction 1 -4.48965e-011 -2.68786e-027   
     length 5.11878   
     axis -180 -30 -90   XYZ
    dof rx ry rz
    limits (-60.0 90.0)
           (-90.0 90.0)
           (-90.0 90.0)
  end
  begin
     id 19
     name lradius
     direction 1 -4.48965e-011 2.61168e-028   
     length 3.59971   
     axis -180 -30 -90   XYZ
    dof rx
    limits (-10.0 170.0)
  end
  begin
     id 20
     name lwrist
     direction 1 -4.48965e-011 1.58672e-027   
     length 1.79985   
     axis -1.65735e-015 90 90   XYZ
    dof ry
    limits (-180.0 0.0)
 end
  begin
     id 21 
     name lhand
     direction 1 -4.48942e-011 3.17344e-027   
     length 0.62877   
     axis -2.02492e-015 90 90   XYZ
    dof rx rz
    limits (-90.0 90.0)
           (-45.0 45.0)
  end
  begin
     id 22 
     name lfingers
     direction 1 -4.49011e-011 6.34687e-027   
     length 0.506931   
     axis -4.04985e-015 90 90   XYZ
    dof rx
    limits (0.0 90.0)
  end
  begin
     id 23
     name lthumb
     direction 0.707107 -6.34982e-011 0.707107   
     length 0.727854   
     axis -90 45 2.85299e-015   XYZ
    dof rx rz
    limits (-45.0 45.0)
           (-45.0 45.0)
  end
  begin
     id 24 
     name rclavicle
     direction -0.945647 0.32488 0.0143075   
     length 3.52737  
     axis 0 0 0   XYZ 
    dof ry rz
    limits (-10.0 20.0)
           (-20.0 0.0)
  end
  begin
     id 25 
     name rhumerus
     direction -1 -4.48962e-011 1.92182e-027  
     length 5.4902   
     axis -180 30 90   XYZ
    dof rx ry rz
    limits (-90.0 60.0)
           (-90.0 90.0)
           (-90.0 90.0)
  end
  begin
     id 26 
     name rradius
     direction -1 -4.48967e-011 -5.97193e-028   
     length 3.20659   
     axis -180 30 90   XYZ
    dof rx
    limits (-10.0 170.0)
  end
  begin
     id 27 
     name rwrist
     direction -1 -4.48964e-011 1.58672e-027   
     length 1.6033   
     axis -1.65735e-015 -90 -90   XYZ
    dof ry
    limits (-180.0 0.0)
  end
  begin
     id 28
     name rhand
     direction -1 -4.49006e-011 3.17344e-027   
     length 0.691885   
     axis -2.02492e-015 -90 -90   XYZ
    dof rx rz
    limits (-90.0 90.0)
           (-45.0 45.0)
  end
  begin
     id 29
     name rfingers
     direction -1 -4.48908e-011 6.34687e-027   
     length 0.557815   
     axis -4.04985e-015 -90 -90   XYZ
    dof rx
    limits (0.0 90.0)
  end
  begin
     id 30
     name rthumb
     direction -0.707107 -6.34999e-011 0.707107   
     length 0.800915   
     axis -90 -45 -2.85299e-015   XYZ
    dof rx rz
    limits (-45.0 45.0)
           (-45.0 45.0)
  end
:hierarchy
  begin
    root lhipjoint rhipjoint lowerback
    lhipjoint lfemur
    lfemur ltibia
    ltibia lfoot
    lfoot ltoes
    rhipjoint rfemur
    rfemur rtibia
    rtibia rfoot
    rfoot rtoes
    lowerback upperback
    upperback thorax
    thorax lowerneck lclavicle rclavicle
    lowerneck upperneck
    upperneck head
    lclavicle lhumerus
    lhumerus lradius
    lradius lwrist
    lwrist lhand lthumb
    lhand lfingers
    rclavicle rhumerus
    rhumerus rradius
    rradius rwrist
    rwrist rhand rthumb
    rhand rfingers
  end

#!OML:ASF I:\Actors\actors\Patient Classification 1\Patient 1\Session 1\Subject1.ASF
:FULLY-SPECIFIED
:DEGREES
23
root -0.367133 17.514 7.37053 5.80702 -1.90479 -7.79123
lowerback 2.89499 0.516666 4.49427
upperback -6.58994 1.0495 0.425132
thorax -8.49605 0.23358 -2.17364
lowerneck 4.20357 -14.23 -16.3314
upperneck 10.5419 -21.8232 18.936
head 6.42132 -10.8523 7.0531
rclavicle 2.48481e-015 -5.56597e-015
rhumerus -35.8747 -11.917 -85.4121
rradius 24.1907
rwrist 39.9636
rhand 0.0220225 -32.7591
rfingers 7.12502
rthumb 25.6115 -61.0568
lclavicle 2.48481e-015 -5.56597e-015
lhumerus -41.8319 25.8423 70.7734
lradius 22.0901
lwrist -30.3161
lhand -19.3004 -10.6964
lfingers 7.12502
lthumb 7.01521 19.1673
rfemur -1.39313 24.3436 25.7488
rtibia 3.01217
rfoot -10.7236 -21.4901
rtoes 0.568208
lfemur 6.7573 -37.9689 -15.1628
ltibia -3.62037
lfoot -13.8895 47.0644
ltoes 7.00978
24
root -0.367287 17.5137 7.37298 5.80166 -1.8194 -7.77384
lowerback 2.86672 0.474936 4.39299
upperback -6.58991 0.992204 0.529396
thorax -8.48558 0.216491 -2.00069
lowerneck 4.21808 -14.2424 -16.4458
upperneck 10.6108 -21.8794 19.0722
head 6.48088 -10.8783 7.10482
rclavicle 9.64106e-015 1.51076e-014
rhumerus -35.7125 -11.8026 -85.4061
rradius 24.3625
rwrist 39.7872
rhand -0.0265223 -32.8595
rfingers 7.12502
rthumb 25.565 -61.1639
lclavicle 9.64106e-015 1.51076e-014
lhumerus -41.8295 25.6716 71.0434
lradius 22.0651
lwrist -30.4219
lhand -19.1273 -9.87712
lfingers 7.12502
lthumb 7.18223 19.981
rfemur -1.38262 24.3061 25.7377
rtibia 3.02772
rfoot -10.7339 -21.5251
rtoes 0.506053
lfemur 6.7554 -38.017 -15.1796
ltibia -3.62391
lfoot -13.8653 47.0366
ltoes 6.94363
25
root -0.368552 17.513 7.37641 5.79813 -1.72667 -7.80773
lowerback 2.80597 0.422549 4.32014
upperback -6.59061 0.920428 0.628045
thorax -8.45716 0.19055 -1.84786
lowerneck 4.25058 -14.2433 -16.3788
upperneck 10.6791 -21.8985 19.0909
head 6.4949 -10.8846 7.10163
rclavicle 3.97569e-016 -3.18055e-015
rhumerus -35.5831 -11.8426 -85.3837
rradius 24.4796
rwrist 39.695
rhand -0.0360854 -32.8784
rfingers 7.12502
rthumb 25.5558 -61.1841
lclavicle 3.97569e-016 -3.18055e-015
lhumerus -41.8632 25.3906 71.2404
lradius 22.0219
lwrist -30.3631
lhand -19.0449 -9.85875
lfingers 7.12502
lthumb 7.26177 19.9966
rfemur -1.38507 24.2021 25.7856
rtibia 3.0746
rfoot -10.7582 -21.494
rtoes 0.384731
lfemur 6.75379 -38.0402 -15.1275
ltibia -3.63568
lfoot -13.7985 46.9884
ltoes 6.83554
26
root -0.37066 17.5127 7.38118 5.77062 -1.64275 -7.85806
lowerback 2.74501 0.382455 4.27525
upperback -6.57517 0.865039 0.7042
thorax -8.40913 0.170527 -1.73616
lowerneck 4.25702 -14.2898 -16.2689
upperneck 10.7426 -21.982 19.1334
head 6.52219 -10.9181 7.088
rclavicle 2.78299e-015 -5.56597e-015
rhumerus -35.4362 -12.0549 -85.3407
rradius 24.4769
rwrist 39.6611
rhand -0.0149168 -32.7977
rfingers 7.12502
rthumb 25.5761 -61.1005
lclavicle 2.78299e-015 -5.56597e-015
lhumerus -41.9043 25.1882 71.3443
lradius 21.9932
lwrist -30.3988
lhand -18.9409 -9.94898
lfingers 7.12502
lthumb 7.36221 19.9029
rfemur -1.32062 24.203 25.8848
rtibia 3.08129
rfoot -10.8055 -21.5656
rtoes 0.569007
lfemur 6.79531 -38.0748 -15.0802
ltibia -3.64883
lfoot -13.8012 46.9499
ltoes 6.84443
27
root -0.371802 17.5131 7.38499 5.72169 -1.58214 -7.84691
lowerback 2.73032 0.34428 4.19421
upperback -6.55988 0.810205 0.752189
thorax -8.388 0.151413 -1.63468
lowerneck 4.16492 -14.3488 -16.1381
upperneck 10.894 -22.0691 19.074
head 6.57963 -10.9474 7.02878
rclavicle -7.7526e-015 0
rhumerus -35.3212 -12.1464 -85.3832
rradius 24.4675
rwrist 39.5214
rhand -0.0636862 -32.707
rfingers 7.12502
rthumb 25.5294 -61.0165
lclavicle -7.7526e-015 0
lhumerus -41.9244 24.9007 71.4949
lradius 21.9878
lwrist -30.2964
lhand -18.8674 -9.83538
lfingers 7.12502
lthumb 7.43319 20.014
rfemur -1.22856 24.229 25.9157
rtibia 3.05992
rfoot -10.8308 -21.6587
rtoes 0.811393
lfemur 6.85904 -38.1018 -15.1341
ltibia -3.64236
lfoot -13.766 46.9317
ltoes 6.72799
28
root -0.371839 17.513 7.387 5.70816 -1.55351 -7.81125
lowerback 2.69955 0.310524 4.10312
upperback -6.5458 0.759622 0.798051
thorax -8.35824 0.135062 -1.53014
lowerneck 4.09321 -14.3743 -16.0767
upperneck 11.0462 -22.1141 19.0265
head 6.63533 -10.9598 6.99109
rclavicle -9.74045e-015 1.19271e-014
rhumerus -35.2018 -12.1393 -85.4578
rradius 24.4266
rwrist 39.4397
rhand -0.124577 -32.6554
rfingers 7.12502
rthumb 25.471 -60.9732
lclavicle -9.74045e-015 1.19271e-014
lhumerus -41.894 24.5824 71.7035
lradius 21.9906
lwrist -30.0398
lhand -18.8957 -9.59137
lfingers 7.12502
lthumb 7.40578 20.259
rfemur -1.23717 24.0952 25.8655
rtibia 3.09621
rfoot -10.8418 -21.5616
rtoes 0.909306
lfemur 6.87571 -38.0664 -15.1872
ltibia -3.64825
lfoot -13.6025 46.9074
ltoes 6.47189
29
root -0.372072 17.512 7.38853 5.72541 -1.56033 -7.83224
lowerback 2.64758 0.300206 4.08843
upperback -6.53929 0.744795 0.841086
thorax -8.32193 0.131172 -1.47465
lowerneck 4.09909 -14.4015 -15.9897
upperneck 11.1921 -22.1691 18.9771
head 6.67443 -10.9811 6.95473
rclavicle 7.25564e-015 -3.18055e-015
rhumerus -35.1018 -12.3852 -85.4232
rradius 24.2615
rwrist 39.7258
rhand -0.178158 -32.6246
rfingers 7.12502
rthumb 25.4197 -60.9497
lclavicle 7.25564e-015 -3.18055e-015
lhumerus -41.8897 24.4686 71.7569
lradius 21.9819
lwrist -30.0176
lhand -18.9368 -9.58427
lfingers 7.12502
lthumb 7.36617 20.2675
rfemur -1.31306 23.9326 25.8579
rtibia 3.17895
rfoot -10.8696 -21.3921
rtoes 0.794602
lfemur 6.89662 -38.0996 -15.1731
ltibia -3.68132
lfoot -13.5408 46.9597
ltoes 6.39391
30
root -0.374258 17.5103 7.39075 5.72063 -1.57543 -7.8754
lowerback 2.6106 0.296035 4.08387
upperback -6.52588 0.739026 0.877414
thorax -8.28631 0.130869 -1.43294
lowerneck 4.10294 -14.4105 -16.0951
upperneck 11.4192 -22.2356 19.0404
head 6.77838 -11.0098 6.97828
rclavicle -1.19271e-015 -1.11319e-014
rhumerus -35.0817 -12.708 -85.3875
rradius 24.1289
rwrist 40.0562
rhand -0.22037 -32.6162
rfingers 7.12502
rthumb 25.3793 -60.9471
lclavicle -1.19271e-015 -1.11319e-014
lhumerus -41.9082 24.4443 71.7096
lradius 21.9903
lwrist -30.134
lhand -18.9519 -9.77323
lfingers 7.12502
lthumb 7.35158 20.079
rfemur -1.32987 23.9006 25.9161
rtibia 3.22936
rfoot -10.8685 -21.3598
rtoes 0.462467
lfemur 6.97177 -38.1865 -15.1592
ltibia -3.72581
lfoot -13.61 47.035
ltoes 6.50496
31
root -0.376521 17.5086 7.39283 5.70783 -1.58377 -7.85714
lowerback 2.58655 0.274458 4.00576
upperback -6.50463 0.704383 0.901614
thorax -8.25126 0.120727 -1.3603
lowerneck 4.09143 -14.4278 -16.1018
upperneck 11.5 -22.2805 19.0776
head 6.81997 -11.0277 6.98287
rclavicle 5.56597e-015 5.56597e-015
rhumerus -35.1032 -12.7628 -85.487
rradius 24.1064
rwrist 40.0744
rhand -0.154465 -32.6479
rfingers 7.12502
rthumb 25.4424 -60.9698
lclavicle 5.56597e-015 5.56597e-015
lhumerus -41.913 24.3852 71.6845
lradius 22.0324
lwrist -30.1349
lhand -19.007 -9.82307
lfingers 7.12502
lthumb 7.29839 20.0311
rfemur -1.3164 23.9375 25.9213
rtibia 3.2566
rfoot -10.8777 -21.4119
rtoes 0.366174
lfemur 7.03874 -38.2889 -15.2313
ltibia -3.72964
lfoot -13.8211 47.1253
ltoes 6.74897
32
root -0.3775 17.508 7.39541 5.69855 -1.61324 -7.80925
lowerback 2.56023 0.271744 3.93129
upperback -6.48455 0.693741 0.903397
thorax -8.21451 0.121272 -1.31562
lowerneck 4.1327 -14.4422 -16.1266
upperneck 11.4644 -22.3224 19.201
head 6.82805 -11.0481 7.02356
rclavicle -1.35174e-014 1.03368e-014
rhumerus -35.1559 -12.756 -85.6091
rradius 24.072
rwrist 40.0688
rhand -0.129406 -32.6184
rfingers 7.12502
rthumb 25.4664 -60.9369
lclavicle -1.35174e-014 1.03368e-014
lhumerus -41.9065 24.282 71.6809
lradius 22.0877
lwrist -30.1046
lhand -18.9789 -9.84304
lfingers 7.12502
lthumb 7.3255 20.0101
rfemur -1.30573 23.9724 25.8825
rtibia 3.28186
rfoot -10.9196 -21.4242
rtoes 0.429702
lfemur 7.08757 -38.3102 -15.3249
ltibia -3.72778
lfoot -13.9465 47.1677
ltoes 6.82817
33
root -0.378382 17.5079 7.39803 5.70092 -1.66695 -7.80972
lowerback 2.5422 0.291119 3.9287
upperback -6.47164 0.719171 0.916564
thorax -8.18865 0.135051 -1.3026
lowerneck 4.11804 -14.4749 -16.2522
upperneck 11.4918 -22.4019 19.3519
head 6.8886 -11.0843 7.07539
rclavicle -5.96354e-015 4.77083e-015
rhumerus -35.2257 -12.8275 -85.6684
rradius 23.9613
rwrist 40.2331
rhand -0.144276 -32.4904
rfingers 7.12502
rthumb 25.4522 -60.8109
lclavicle -5.96354e-015 4.77083e-015
lhumerus -41.9054 24.2138 71.682
lradius 22.1559
lwrist -30.0829
lhand -18.8347 -9.91953
lfingers 7.12502
lthumb 7.46471 19.9288
rfemur -1.31577 23.9854 25.8855
rtibia 3.31038
rfoot -10.9277 -21.3791
rtoes 0.444338
lfemur 7.10599 -38.1488 -15.2959
ltibia -3.7867
lfoot -13.8002 47.0736
ltoes 6.66839
34
root -0.378365 17.5076 7.39906 5.73095 -1.71415 -7.80953
lowerback 2.53017 0.296501 3.93731
upperback -6.46793 0.728247 0.945685
thorax -8.17742 0.140282 -1.2775
lowerneck 3.96202 -14.5375 -16.2318
upperneck 11.6193 -22.478 19.2579
head 6.95642 -11.1096 7.01513
rclavicle -1.97791e-014 3.97569e-015
rhumerus -35.2561 -12.9115 -85.6759
rradius 23.7726
rwrist 40.4243
rhand 0.0106932 -32.4066
rfingers 7.12502
rthumb 25.6006 -60.7059
lclavicle -1.97791e-014 3.97569e-015
lhumerus -41.8967 24.3221 71.6386
lradius 22.1786
lwrist -30.0941
lhand -18.7518 -9.92215
lfingers 7.12502
lthumb 7.54473 19.9233
rfemur -1.35874 23.9847 25.865
rtibia 3.33025
rfoot -10.9688 -21.321
rtoes 0.712655
lfemur 7.08733 -38.0556 -15.2644
ltibia -3.82873
lfoot -13.599 47.0476
ltoes 6.4041
35
root -0.378118 17.5072 7.39975 5.76149 -1.7602 -7.8062
lowerback 2.50649 0.30991 3.95646
upperback -6.4614 0.746791 0.955969
thorax -8.15552 0.149022 -1.27894
lowerneck 3.87434 -14.5678 -16.2661
upperneck 11.7189 -22.5163 19.1907
head 7.0062 -11.1233 6.98319
rclavicle 1.11319e-014 -3.97569e-015
rhumerus -35.2799 -13.0239 -85.6607
rradius 23.5298
rwrist 40.7429
rhand 0.171524 -32.3151
rfingers 7.12502
rthumb 25.7547 -60.5922
lclavicle 1.11319e-014 -3.97569e-015
lhumerus -41.8594 24.4866 71.5509
lradius 22.1369
lwrist -30.2073
lhand -18.787 -9.82563
lfingers 7.12502
lthumb 7.51072 20.021
rfemur -1.38825 23.9972 25.8412
rtibia 3.32452
rfoot -11.0068 -21.284
rtoes 0.909327
lfemur 7.09214 -38.1465 -15.2942
ltibia -3.8214
lfoot -13.6029 47.184
ltoes 6.3023
